@startuml Diagrama

class Persona
class Foco{

    - Bool encendido
    + Encender()
    + Apagar()
}

class Juego
class Mapa 
class Jugador
class Serpiente
class Eslabon
class Cabeza 
class Fruta
class Colicionable
class Pared

Juego "1" *-- "1" Jugador
Jugador "1" o-- "1" Serpiente
Serpiente "1" *-- "1" Eslabon
Serpiente "1" *-- "1" Cabeza
Cabeza --|> Eslabon
Cabeza "1" o-- "1" Fruta
Eslabon --|> Colicionable

Pared --|> Colicionable
Mapa "1" *-- "4" Pared

Class Dibujo
class Lienzo
class Pintor    

Lienzo "1" *-- "*" Dibujo
Pintor o-- Dibujo
Pintor o-- Lienzo

Eslabon --|> Dibujo
Juego "1" o-- "1" Pintor

Mapa --|> Dibujo
Fruta --|> Dibujo
Eslabon --|> Dibujo

Juego "1" o-- "1" Pintor

Persona o-- Foco



@enduml